<svg width="24" height="25" viewBox="0 0 24 25" fill="none" xmlns="http://www.w3.org/2000/svg">
<path d="M21 8.5V16.5C21 17.8261 20.4732 19.0979 19.5355 20.0355C18.5979 20.9732 17.3261 21.5 16 21.5H8C6.67392 21.5 5.40215 20.9732 4.46447 20.0355C3.52678 19.0979 3 17.8261 3 16.5V8.5C3 7.17392 3.52678 5.90215 4.46447 4.96447C5.40215 4.02678 6.67392 3.5 8 3.5H16C17.3261 3.5 18.5979 4.02678 19.5355 4.96447C20.4732 5.90215 21 7.17392 21 8.5Z" stroke="#3D3B3B" stroke-width="1.5" stroke-linecap="round" stroke-linejoin="round"/>
<path d="M9.099 12.326C11.634 12.326 11.634 16.5 9.099 16.5H6V12.326M9.099 12.326H6M9.099 12.326C11.634 12.326 11.634 8.5 9.099 8.5H6V12.326M13 14C13 13.337 13.2634 12.7011 13.7322 12.2322C14.2011 11.7634 14.837 11.5 15.5 11.5C16.163 11.5 16.7989 11.7634 17.2678 12.2322C17.7366 12.7011 18 13.337 18 14H13ZM13 14C13 14.663 13.2634 15.2989 13.7322 15.7678C14.2011 16.2366 14.837 16.5 15.5 16.5C16.428 16.5 16.99 16.178 17.313 15.88M17 9H14" stroke="#3D3B3B" stroke-width="1.5" stroke-linecap="round" stroke-linejoin="round"/>
</svg>
