<svg width="24" height="25" viewBox="0 0 24 25" fill="none" xmlns="http://www.w3.org/2000/svg">
<path d="M12 2C6.20297 2 1.5 6.70297 1.5 12.5C1.5 18.297 6.20297 23 12 23C17.797 23 22.5 18.3022 22.5 12.5C22.5 6.69781 17.797 2 12 2ZM18.6666 6.83984C19.8815 8.26805 20.6046 10.0493 20.7291 11.9202C18.8367 11.8217 16.5727 11.8217 14.7572 11.9914C14.5275 11.4116 14.2922 10.843 14.0353 10.2959C16.1288 9.38844 17.7422 8.19594 18.6666 6.83984ZM12 3.74984C14.0395 3.74634 16.0156 4.45866 17.5837 5.76266C16.6322 6.96547 15.1392 8.01266 13.2797 8.80297C12.2625 6.92188 11.092 5.30328 9.84375 4.02875C10.5482 3.8469 11.2725 3.75322 12 3.74984ZM8.04047 4.70703C9.30375 5.96469 10.4906 7.56641 11.5298 9.44141C9.55547 10.0447 7.29141 10.3906 4.875 10.3906C4.41563 10.3906 3.9675 10.3742 3.52453 10.3466C3.83266 9.13935 4.3949 8.0118 5.17367 7.03927C5.95244 6.06673 6.92981 5.27161 8.04047 4.70703ZM3.26625 12.0842C3.76406 12.1062 4.26703 12.117 4.77562 12.1119C7.53187 12.0791 10.0969 11.6469 12.3009 10.94C12.5088 11.3722 12.7056 11.8152 12.8916 12.2689C12.6252 12.3272 12.3637 12.4056 12.1092 12.5033C9.09609 13.7689 6.72281 15.8084 5.4375 18.275C4.02813 16.6814 3.25007 14.6274 3.24984 12.5C3.24984 12.3594 3.25547 12.2211 3.26625 12.0842ZM12 21.2502C10.056 21.2525 8.16724 20.6036 6.63516 19.407C7.8 17.0994 9.87797 15.1883 12.4978 14.0037C12.7439 13.8889 13.072 13.7961 13.4494 13.7141C13.7619 14.5778 14.0408 15.4747 14.2861 16.4047C14.6525 17.8083 14.9223 19.2354 15.0938 20.6759C14.1061 21.0543 13.0576 21.2489 12 21.2502ZM16.7306 19.8556C16.5595 18.4001 16.2871 16.9584 15.9155 15.5408C15.728 14.8297 15.5166 14.1406 15.2869 13.468C17.0039 13.3273 19.0603 13.3475 20.6953 13.468C20.5512 14.7606 20.1206 16.0047 19.4347 17.1097C18.7488 18.2148 17.825 19.1529 16.7306 19.8556Z" fill="#3D3B3B"/>
</svg>
