<svg width="24" height="25" viewBox="0 0 24 25" fill="none" xmlns="http://www.w3.org/2000/svg">
<path d="M21 4.625H3C2.70163 4.625 2.41548 4.74353 2.2045 4.9545C1.99353 5.16548 1.875 5.45163 1.875 5.75V18.5C1.875 18.9973 2.07254 19.4742 2.42417 19.8258C2.77581 20.1775 3.25272 20.375 3.75 20.375H20.25C20.7473 20.375 21.2242 20.1775 21.5758 19.8258C21.9275 19.4742 22.125 18.9973 22.125 18.5V5.75C22.125 5.45163 22.0065 5.16548 21.7955 4.9545C21.5845 4.74353 21.2984 4.625 21 4.625ZM18.1078 6.875L12 12.4738L5.89219 6.875H18.1078ZM4.125 18.125V8.3075L11.2397 14.8297C11.4472 15.02 11.7185 15.1255 12 15.1255C12.2815 15.1255 12.5528 15.02 12.7603 14.8297L19.875 8.3075V18.125H4.125Z" fill="white"/>
</svg>
