<svg width="1440" height="632" viewBox="0 0 1440 632" fill="none" xmlns="http://www.w3.org/2000/svg">
<g clip-path="url(#clip0_16_44)">
<rect width="1440" height="632" fill="#FFFFFD"/>
<g clip-path="url(#clip1_16_44)">
<rect x="779" y="115" width="294" height="282" rx="141" fill="white"/>
<g filter="url(#filter0_f_16_44)">
<circle cx="973.996" cy="309.996" r="86.996" fill="#FF08D7"/>
</g>
<g filter="url(#filter1_f_16_44)">
<circle cx="968.268" cy="179.436" r="86.996" fill="#8F00E7"/>
</g>
<g filter="url(#filter2_f_16_44)">
<circle cx="855.468" cy="327.58" r="86.996" fill="#0821FF"/>
</g>
<g filter="url(#filter3_f_16_44)">
<circle cx="833.66" cy="153.868" r="86.996" fill="#08FFFF"/>
</g>
</g>
<path d="M481.064 257.616H499.24C504.616 257.616 508.883 256.251 512.04 253.52C515.197 250.704 516.776 246.949 516.776 242.256C516.776 237.477 515.197 233.68 512.04 230.864C508.883 227.963 504.616 226.512 499.24 226.512H481.064V257.616ZM501.544 268.88H481.064V306H468.52V215.248H501.544C509.821 215.248 516.563 217.808 521.768 222.928C526.973 228.048 529.576 234.448 529.576 242.128C529.576 249.893 526.973 256.293 521.768 261.328C516.563 266.363 509.821 268.88 501.544 268.88ZM551.162 291.408C554.917 295.248 559.482 297.168 564.858 297.168C570.234 297.168 574.757 295.248 578.426 291.408C582.181 287.483 584.058 282.064 584.058 275.152C584.058 268.325 582.181 262.992 578.426 259.152C574.757 255.227 570.234 253.264 564.858 253.264C559.482 253.264 554.917 255.227 551.162 259.152C547.493 262.992 545.658 268.325 545.658 275.152C545.658 282.064 547.493 287.483 551.162 291.408ZM542.202 251.856C548.175 245.627 555.727 242.512 564.858 242.512C573.989 242.512 581.498 245.627 587.386 251.856C593.359 258 596.346 265.765 596.346 275.152C596.346 284.624 593.402 292.475 587.514 298.704C581.626 304.848 574.074 307.92 564.858 307.92C555.642 307.92 548.09 304.848 542.202 298.704C536.314 292.475 533.37 284.624 533.37 275.152C533.37 265.765 536.314 258 542.202 251.856ZM645.916 243.792V256.592C644.124 256.336 642.375 256.208 640.668 256.208C629.404 256.208 623.772 262.523 623.772 275.152V306H611.74V244.432H623.516V255.184C627.271 247.333 633.415 243.408 641.948 243.408C643.313 243.408 644.636 243.536 645.916 243.792ZM678.118 224.976V244.432H691.43V255.312H678.118V287.312C678.118 290.213 678.758 292.347 680.038 293.712C681.403 295.077 683.622 295.76 686.694 295.76C688.486 295.76 690.065 295.589 691.43 295.248V305.488C689.382 306.256 686.651 306.64 683.238 306.64C677.947 306.64 673.766 305.104 670.694 302.032C667.622 298.96 666.086 294.651 666.086 289.104V255.312H654.31V244.432H657.638C660.795 244.432 663.142 243.579 664.678 241.872C666.299 240.08 667.11 237.776 667.11 234.96V224.976H678.118ZM738.466 255.312H723.618V306H711.202V255.312H699.81V244.432H711.202V234.064C711.202 227.493 713.122 222.331 716.962 218.576C720.802 214.821 725.623 212.944 731.426 212.944C735.095 212.944 737.485 213.371 738.594 214.224V224.976C737.314 224.464 735.565 224.208 733.346 224.208C730.701 224.208 728.397 225.019 726.434 226.64C724.557 228.176 723.618 230.864 723.618 234.704V244.432H738.466V255.312ZM761.537 291.408C765.292 295.248 769.857 297.168 775.233 297.168C780.609 297.168 785.132 295.248 788.801 291.408C792.556 287.483 794.433 282.064 794.433 275.152C794.433 268.325 792.556 262.992 788.801 259.152C785.132 255.227 780.609 253.264 775.233 253.264C769.857 253.264 765.292 255.227 761.537 259.152C757.868 262.992 756.033 268.325 756.033 275.152C756.033 282.064 757.868 287.483 761.537 291.408ZM752.577 251.856C758.55 245.627 766.102 242.512 775.233 242.512C784.364 242.512 791.873 245.627 797.761 251.856C803.734 258 806.721 265.765 806.721 275.152C806.721 284.624 803.777 292.475 797.889 298.704C792.001 304.848 784.449 307.92 775.233 307.92C766.017 307.92 758.465 304.848 752.577 298.704C746.689 292.475 743.745 284.624 743.745 275.152C743.745 265.765 746.689 258 752.577 251.856ZM834.147 306H822.115V213.328H834.147V306ZM866.519 306H854.615V244.432H866.519V306ZM854.359 227.28C852.738 225.573 851.927 223.525 851.927 221.136C851.927 218.747 852.738 216.699 854.359 214.992C856.066 213.285 858.114 212.432 860.503 212.432C862.892 212.432 864.94 213.285 866.647 214.992C868.354 216.613 869.207 218.661 869.207 221.136C869.207 223.525 868.354 225.573 866.647 227.28C864.94 228.901 862.892 229.712 860.503 229.712C858.114 229.712 856.066 228.901 854.359 227.28ZM899.662 291.408C903.417 295.248 907.982 297.168 913.358 297.168C918.734 297.168 923.257 295.248 926.926 291.408C930.681 287.483 932.558 282.064 932.558 275.152C932.558 268.325 930.681 262.992 926.926 259.152C923.257 255.227 918.734 253.264 913.358 253.264C907.982 253.264 903.417 255.227 899.662 259.152C895.993 262.992 894.158 268.325 894.158 275.152C894.158 282.064 895.993 287.483 899.662 291.408ZM890.702 251.856C896.675 245.627 904.227 242.512 913.358 242.512C922.489 242.512 929.998 245.627 935.886 251.856C941.859 258 944.846 265.765 944.846 275.152C944.846 284.624 941.902 292.475 936.014 298.704C930.126 304.848 922.574 307.92 913.358 307.92C904.142 307.92 896.59 304.848 890.702 298.704C884.814 292.475 881.87 284.624 881.87 275.152C881.87 265.765 884.814 258 890.702 251.856ZM959.645 304.08C957.938 302.373 957.085 300.283 957.085 297.808C957.085 295.333 957.938 293.243 959.645 291.536C961.352 289.744 963.442 288.848 965.917 288.848C968.392 288.848 970.482 289.744 972.189 291.536C973.981 293.243 974.877 295.333 974.877 297.808C974.877 300.283 973.981 302.373 972.189 304.08C970.482 305.787 968.392 306.64 965.917 306.64C963.442 306.64 961.352 305.787 959.645 304.08Z" fill="#141111"/>
<path d="M353.94 615.3C352.007 615.3 350.347 614.633 348.96 613.3C347.587 611.967 346.9 610.167 346.9 607.9C346.9 606.38 347.247 605.047 347.94 603.9C348.633 602.753 349.507 601.907 350.56 601.36C351.613 600.8 352.74 600.52 353.94 600.52C355.54 600.52 356.887 600.927 357.98 601.74C359.087 602.54 359.82 603.633 360.18 605.02L358.36 605.66C358.093 604.593 357.58 603.773 356.82 603.2C356.06 602.613 355.1 602.32 353.94 602.32C352.553 602.32 351.367 602.813 350.38 603.8C349.393 604.773 348.9 606.14 348.9 607.9C348.9 609.66 349.393 611.033 350.38 612.02C351.367 613.007 352.553 613.5 353.94 613.5C355.1 613.5 356.067 613.193 356.84 612.58C357.613 611.953 358.153 611.127 358.46 610.1L360.2 610.74C359.813 612.113 359.067 613.22 357.96 614.06C356.867 614.887 355.527 615.3 353.94 615.3ZM364.285 609.34V615H362.405V600.52H364.285V606.5C364.925 605.567 365.898 605.1 367.205 605.1C368.311 605.1 369.158 605.453 369.745 606.16C370.345 606.867 370.645 607.78 370.645 608.9V615H368.765V609.22C368.765 607.607 368.018 606.8 366.525 606.8C365.831 606.8 365.291 607.04 364.905 607.52C364.518 607.987 364.311 608.593 364.285 609.34ZM375.495 615H373.635V605.38H375.495V615ZM373.595 602.7C373.342 602.433 373.215 602.113 373.215 601.74C373.215 601.367 373.342 601.047 373.595 600.78C373.862 600.513 374.182 600.38 374.555 600.38C374.928 600.38 375.248 600.513 375.515 600.78C375.782 601.033 375.915 601.353 375.915 601.74C375.915 602.113 375.782 602.433 375.515 602.7C375.248 602.953 374.928 603.08 374.555 603.08C374.182 603.08 373.862 602.953 373.595 602.7ZM380.574 609.44V615H378.694V605.38H380.534V606.76C381.174 605.653 382.16 605.1 383.494 605.1C384.6 605.1 385.447 605.453 386.034 606.16C386.634 606.867 386.934 607.78 386.934 608.9V615H385.054V609.22C385.054 607.607 384.307 606.8 382.814 606.8C382.107 606.8 381.554 607.053 381.154 607.56C380.767 608.053 380.574 608.68 380.574 609.44ZM391.904 612.72C392.491 613.32 393.204 613.62 394.044 613.62C394.884 613.62 395.591 613.32 396.164 612.72C396.751 612.107 397.044 611.26 397.044 610.18C397.044 609.113 396.751 608.28 396.164 607.68C395.591 607.067 394.884 606.76 394.044 606.76C393.204 606.76 392.491 607.067 391.904 607.68C391.331 608.28 391.044 609.113 391.044 610.18C391.044 611.26 391.331 612.107 391.904 612.72ZM390.504 606.54C391.438 605.567 392.618 605.08 394.044 605.08C395.471 605.08 396.644 605.567 397.564 606.54C398.498 607.5 398.964 608.713 398.964 610.18C398.964 611.66 398.504 612.887 397.584 613.86C396.664 614.82 395.484 615.3 394.044 615.3C392.604 615.3 391.424 614.82 390.504 613.86C389.584 612.887 389.124 611.66 389.124 610.18C389.124 608.713 389.584 607.5 390.504 606.54ZM403.25 609.44V615H401.37V605.38H403.21V606.76C403.85 605.653 404.836 605.1 406.17 605.1C407.276 605.1 408.123 605.453 408.71 606.16C409.31 606.867 409.61 607.78 409.61 608.9V615H407.73V609.22C407.73 607.607 406.983 606.8 405.49 606.8C404.783 606.8 404.23 607.053 403.83 607.56C403.443 608.053 403.25 608.68 403.25 609.44ZM415 619.02H412.94L415.34 613.94L411.2 605.38H413.36L416.36 612.02L419.24 605.38H421.26L415 619.02ZM423.898 609.2H429.158C429.131 608.48 428.891 607.893 428.438 607.44C427.985 606.973 427.345 606.74 426.518 606.74C425.771 606.74 425.158 606.987 424.678 607.48C424.198 607.96 423.938 608.533 423.898 609.2ZM429.438 611.7L431.058 612.26C430.778 613.153 430.258 613.887 429.498 614.46C428.738 615.02 427.818 615.3 426.738 615.3C425.391 615.3 424.245 614.84 423.298 613.92C422.365 612.987 421.898 611.733 421.898 610.16C421.898 608.693 422.351 607.48 423.258 606.52C424.165 605.56 425.245 605.08 426.498 605.08C427.951 605.08 429.085 605.54 429.898 606.46C430.711 607.367 431.118 608.587 431.118 610.12C431.118 610.36 431.105 610.56 431.078 610.72H423.838C423.851 611.573 424.131 612.273 424.678 612.82C425.238 613.367 425.925 613.64 426.738 613.64C428.111 613.64 429.011 612.993 429.438 611.7ZM437.618 612.5L439.318 611.9C439.385 612.42 439.611 612.853 439.998 613.2C440.385 613.533 440.905 613.7 441.558 613.7C442.065 613.7 442.465 613.58 442.758 613.34C443.051 613.087 443.198 612.78 443.198 612.42C443.198 611.78 442.785 611.367 441.958 611.18L440.318 610.82C439.571 610.66 438.985 610.34 438.558 609.86C438.131 609.38 437.918 608.8 437.918 608.12C437.918 607.293 438.251 606.58 438.918 605.98C439.598 605.38 440.405 605.08 441.338 605.08C441.951 605.08 442.498 605.173 442.978 605.36C443.458 605.533 443.831 605.767 444.098 606.06C444.365 606.353 444.565 606.627 444.698 606.88C444.831 607.133 444.931 607.393 444.998 607.66L443.338 608.28C443.311 608.12 443.265 607.967 443.198 607.82C443.131 607.66 443.025 607.487 442.878 607.3C442.745 607.113 442.545 606.967 442.278 606.86C442.011 606.74 441.698 606.68 441.338 606.68C440.871 606.68 440.485 606.807 440.178 607.06C439.885 607.313 439.738 607.613 439.738 607.96C439.738 608.573 440.105 608.96 440.838 609.12L442.398 609.46C443.251 609.647 443.905 609.993 444.358 610.5C444.825 610.993 445.058 611.6 445.058 612.32C445.058 613.08 444.745 613.767 444.118 614.38C443.505 614.993 442.645 615.3 441.538 615.3C440.351 615.3 439.425 615.007 438.758 614.42C438.091 613.82 437.711 613.18 437.618 612.5ZM449.421 615H447.561V605.38H449.421V615ZM447.521 602.7C447.268 602.433 447.141 602.113 447.141 601.74C447.141 601.367 447.268 601.047 447.521 600.78C447.788 600.513 448.108 600.38 448.481 600.38C448.854 600.38 449.174 600.513 449.441 600.78C449.708 601.033 449.841 601.353 449.841 601.74C449.841 602.113 449.708 602.433 449.441 602.7C449.174 602.953 448.854 603.08 448.481 603.08C448.108 603.08 447.788 602.953 447.521 602.7ZM451.22 615L454.8 610.1L451.34 605.38H453.62L455.98 608.76L458.3 605.38H460.52L457.1 610.1C457.286 610.353 457.873 611.167 458.86 612.54C459.846 613.913 460.44 614.733 460.64 615H458.38L455.9 611.46L453.46 615H451.22ZM465.061 602.34V605.38H467.141V607.08H465.061V612.08C465.061 612.533 465.161 612.867 465.361 613.08C465.575 613.293 465.921 613.4 466.401 613.4C466.681 613.4 466.928 613.373 467.141 613.32V614.92C466.821 615.04 466.395 615.1 465.861 615.1C465.035 615.1 464.381 614.86 463.901 614.38C463.421 613.9 463.181 613.227 463.181 612.36V607.08H461.341V605.38H461.861C462.355 605.38 462.721 605.247 462.961 604.98C463.215 604.7 463.341 604.34 463.341 603.9V602.34H465.061ZM475.991 613.84C475.737 614.32 475.351 614.687 474.831 614.94C474.311 615.18 473.751 615.3 473.151 615.3C472.057 615.3 471.184 614.94 470.531 614.22C469.877 613.487 469.551 612.56 469.551 611.44V605.38H471.431V611.16C471.431 611.88 471.604 612.473 471.951 612.94C472.311 613.407 472.864 613.64 473.611 613.64C474.357 613.64 474.924 613.42 475.311 612.98C475.697 612.527 475.891 611.927 475.891 611.18V605.38H477.771V613.22C477.771 613.847 477.804 614.44 477.871 615H476.071C476.017 614.707 475.991 614.32 475.991 613.84ZM480.079 612.5L481.779 611.9C481.846 612.42 482.072 612.853 482.459 613.2C482.846 613.533 483.366 613.7 484.019 613.7C484.526 613.7 484.926 613.58 485.219 613.34C485.512 613.087 485.659 612.78 485.659 612.42C485.659 611.78 485.246 611.367 484.419 611.18L482.779 610.82C482.032 610.66 481.446 610.34 481.019 609.86C480.592 609.38 480.379 608.8 480.379 608.12C480.379 607.293 480.712 606.58 481.379 605.98C482.059 605.38 482.866 605.08 483.799 605.08C484.412 605.08 484.959 605.173 485.439 605.36C485.919 605.533 486.292 605.767 486.559 606.06C486.826 606.353 487.026 606.627 487.159 606.88C487.292 607.133 487.392 607.393 487.459 607.66L485.799 608.28C485.772 608.12 485.726 607.967 485.659 607.82C485.592 607.66 485.486 607.487 485.339 607.3C485.206 607.113 485.006 606.967 484.739 606.86C484.472 606.74 484.159 606.68 483.799 606.68C483.332 606.68 482.946 606.807 482.639 607.06C482.346 607.313 482.199 607.613 482.199 607.96C482.199 608.573 482.566 608.96 483.299 609.12L484.859 609.46C485.712 609.647 486.366 609.993 486.819 610.5C487.286 610.993 487.519 611.6 487.519 612.32C487.519 613.08 487.206 613.767 486.579 614.38C485.966 614.993 485.106 615.3 483.999 615.3C482.812 615.3 481.886 615.007 481.219 614.42C480.552 613.82 480.172 613.18 480.079 612.5ZM494.422 612.42C494.422 611.593 494.689 610.933 495.222 610.44C495.755 609.933 496.462 609.62 497.342 609.5L499.942 609.12C500.435 609.053 500.682 608.813 500.682 608.4C500.682 607.893 500.509 607.48 500.162 607.16C499.815 606.84 499.295 606.68 498.602 606.68C497.962 606.68 497.455 606.86 497.082 607.22C496.709 607.567 496.489 608.033 496.422 608.62L494.622 608.2C494.715 607.28 495.135 606.533 495.882 605.96C496.629 605.373 497.522 605.08 498.562 605.08C499.922 605.08 500.929 605.413 501.582 606.08C502.235 606.733 502.562 607.573 502.562 608.6V613.42C502.562 613.993 502.602 614.52 502.682 615H500.842C500.775 614.6 500.742 614.167 500.742 613.7C500.475 614.127 500.082 614.5 499.562 614.82C499.055 615.14 498.415 615.3 497.642 615.3C496.695 615.3 495.922 615.02 495.322 614.46C494.722 613.887 494.422 613.207 494.422 612.42ZM497.902 613.72C498.742 613.72 499.415 613.493 499.922 613.04C500.429 612.587 500.682 611.867 500.682 610.88V610.44L497.742 610.88C497.315 610.947 496.975 611.1 496.722 611.34C496.469 611.58 496.342 611.907 496.342 612.32C496.342 612.693 496.482 613.02 496.762 613.3C497.055 613.58 497.435 613.72 497.902 613.72ZM504.791 615.52L506.611 615.1C506.677 615.78 506.951 616.34 507.431 616.78C507.911 617.233 508.511 617.46 509.231 617.46C511.191 617.46 512.171 616.42 512.171 614.34V612.96C511.931 613.427 511.551 613.807 511.031 614.1C510.524 614.393 509.924 614.54 509.231 614.54C507.951 614.54 506.891 614.107 506.051 613.24C505.224 612.36 504.811 611.24 504.811 609.88C504.811 608.56 505.224 607.453 506.051 606.56C506.877 605.653 507.937 605.2 509.231 605.2C510.697 605.2 511.684 605.707 512.191 606.72V605.38H514.051V614.28C514.051 614.92 513.964 615.513 513.791 616.06C513.631 616.62 513.371 617.133 513.011 617.6C512.651 618.067 512.144 618.433 511.491 618.7C510.851 618.967 510.097 619.1 509.231 619.1C508.044 619.1 507.037 618.76 506.211 618.08C505.384 617.413 504.911 616.56 504.791 615.52ZM509.511 612.96C510.324 612.96 510.984 612.68 511.491 612.12C511.997 611.547 512.251 610.8 512.251 609.88C512.251 608.96 511.997 608.22 511.491 607.66C510.984 607.087 510.324 606.8 509.511 606.8C508.684 606.8 508.011 607.08 507.491 607.64C506.984 608.2 506.731 608.947 506.731 609.88C506.731 610.827 506.977 611.58 507.471 612.14C507.977 612.687 508.657 612.96 509.511 612.96ZM523.295 613.84C523.042 614.32 522.655 614.687 522.135 614.94C521.615 615.18 521.055 615.3 520.455 615.3C519.362 615.3 518.489 614.94 517.835 614.22C517.182 613.487 516.855 612.56 516.855 611.44V605.38H518.735V611.16C518.735 611.88 518.909 612.473 519.255 612.94C519.615 613.407 520.169 613.64 520.915 613.64C521.662 613.64 522.229 613.42 522.615 612.98C523.002 612.527 523.195 611.927 523.195 611.18V605.38H525.075V613.22C525.075 613.847 525.109 614.44 525.175 615H523.375C523.322 614.707 523.295 614.32 523.295 613.84Z" fill="black"/>
<path d="M472.288 329.152C471.531 329.877 470.555 330.24 469.36 330.24C468.165 330.24 467.184 329.877 466.416 329.152C465.659 328.427 465.28 327.419 465.28 326.128V318.656H466.832V326.08C466.832 326.944 467.051 327.611 467.488 328.08C467.936 328.549 468.56 328.784 469.36 328.784C470.16 328.784 470.779 328.549 471.216 328.08C471.653 327.611 471.872 326.944 471.872 326.08V318.656H473.44V326.128C473.44 327.419 473.056 328.427 472.288 329.152ZM477.759 330H476.159V318.656H477.759V330ZM486.147 318.656L480.659 330H479.203L484.691 318.656H486.147ZM494.429 329.152C493.671 329.877 492.695 330.24 491.501 330.24C490.306 330.24 489.325 329.877 488.557 329.152C487.799 328.427 487.421 327.419 487.421 326.128V318.656H488.973V326.08C488.973 326.944 489.191 327.611 489.629 328.08C490.077 328.549 490.701 328.784 491.501 328.784C492.301 328.784 492.919 328.549 493.357 328.08C493.794 327.611 494.013 326.944 494.013 326.08V318.656H495.581V326.128C495.581 327.419 495.197 328.427 494.429 329.152ZM506.571 318.656L502.715 324.32L506.523 330H504.651L501.787 325.568L498.859 330H497.019L500.891 324.32L497.051 318.656H498.939L501.803 323.104L504.715 318.656H506.571ZM513.742 328.608H516.062C517.172 328.608 518.089 328.24 518.814 327.504C519.55 326.768 519.918 325.717 519.918 324.352C519.918 322.976 519.556 321.915 518.83 321.168C518.116 320.421 517.204 320.048 516.094 320.048H513.742V328.608ZM516.11 330H512.174V318.656H516.142C517.668 318.656 518.948 319.163 519.982 320.176C521.017 321.179 521.534 322.571 521.534 324.352C521.534 326.123 521.012 327.509 519.966 328.512C518.921 329.504 517.636 330 516.11 330ZM530.586 330H523.69V318.656H530.586V320.112H525.258V323.6H530.09V325.072H525.258V328.544H530.586V330ZM540.219 321.232L538.811 321.728C538.736 321.237 538.496 320.795 538.091 320.4C537.686 319.995 537.126 319.792 536.411 319.792C535.782 319.792 535.259 319.973 534.843 320.336C534.427 320.699 534.219 321.147 534.219 321.68C534.219 322.096 534.342 322.448 534.587 322.736C534.843 323.024 535.206 323.221 535.675 323.328L537.371 323.696C538.31 323.899 539.035 324.283 539.547 324.848C540.059 325.403 540.315 326.08 540.315 326.88C540.315 327.797 539.952 328.587 539.227 329.248C538.502 329.909 537.558 330.24 536.395 330.24C535.126 330.24 534.128 329.909 533.403 329.248C532.688 328.576 532.272 327.781 532.155 326.864L533.659 326.384C533.723 327.067 533.99 327.643 534.459 328.112C534.928 328.581 535.568 328.816 536.379 328.816C537.126 328.816 537.702 328.645 538.107 328.304C538.512 327.963 538.715 327.531 538.715 327.008C538.715 326.581 538.571 326.213 538.283 325.904C537.995 325.584 537.574 325.365 537.019 325.248L535.403 324.896C534.56 324.715 533.888 324.357 533.387 323.824C532.886 323.291 532.635 322.613 532.635 321.792C532.635 320.896 532.998 320.112 533.723 319.44C534.459 318.757 535.344 318.416 536.379 318.416C537.542 318.416 538.432 318.699 539.051 319.264C539.67 319.829 540.059 320.485 540.219 321.232ZM544.071 330H542.471V318.656H544.071V330ZM556.78 330H555.516L555.372 328.4C555.094 328.901 554.641 329.333 554.012 329.696C553.382 330.059 552.625 330.24 551.74 330.24C550.769 330.24 549.873 330.021 549.052 329.584C548.23 329.136 547.553 328.453 547.02 327.536C546.497 326.619 546.236 325.547 546.236 324.32C546.236 323.093 546.513 322.021 547.068 321.104C547.622 320.187 548.316 319.509 549.148 319.072C549.99 318.635 550.892 318.416 551.852 318.416C553.068 318.416 554.124 318.731 555.02 319.36C555.926 319.979 556.545 320.805 556.876 321.84L555.452 322.448C555.196 321.627 554.748 320.992 554.108 320.544C553.478 320.085 552.726 319.856 551.852 319.856C550.753 319.856 549.809 320.245 549.02 321.024C548.23 321.803 547.836 322.901 547.836 324.32C547.836 325.749 548.22 326.859 548.988 327.648C549.766 328.427 550.7 328.816 551.788 328.816C552.385 328.816 552.913 328.72 553.372 328.528C553.841 328.336 554.204 328.085 554.46 327.776C554.726 327.456 554.924 327.136 555.052 326.816C555.19 326.496 555.27 326.176 555.292 325.856H551.356V324.448H556.78V330ZM568.518 330H566.886L560.758 320.752V330H559.19V318.656H561.286L566.95 327.36V318.656H568.518V330ZM578.289 330H571.393V318.656H578.289V320.112H572.961V323.6H577.793V325.072H572.961V328.544H578.289V330ZM586.562 330L583.97 325.36H582.274V330H580.69V318.656H584.962C586.007 318.656 586.845 318.981 587.474 319.632C588.114 320.272 588.434 321.072 588.434 322.032C588.434 322.853 588.189 323.557 587.698 324.144C587.207 324.72 586.535 325.088 585.682 325.248L588.386 330H586.562ZM582.274 323.952H584.674C585.314 323.952 585.831 323.781 586.226 323.44C586.621 323.088 586.818 322.619 586.818 322.032C586.818 321.435 586.621 320.96 586.226 320.608C585.831 320.245 585.314 320.064 584.674 320.064H582.274V323.952Z" fill="black"/>
<path d="M1044.82 20.7L1042.86 20.46C1042.85 20.34 1042.84 20.1667 1042.84 19.94C1042.84 18.78 1043.25 17.7933 1044.06 16.98C1044.87 16.1533 1045.96 15.74 1047.32 15.74C1048.67 15.74 1049.73 16.1267 1050.52 16.9C1051.31 17.66 1051.7 18.6 1051.7 19.72C1051.7 21.36 1050.89 22.6933 1049.26 23.72L1046.7 25.36C1045.78 25.9467 1045.25 26.5533 1045.12 27.18H1051.78V29H1042.7C1042.73 27.9067 1042.97 26.9467 1043.44 26.12C1043.92 25.2933 1044.7 24.5333 1045.78 23.84L1047.94 22.44C1049.13 21.68 1049.72 20.78 1049.72 19.74C1049.72 19.1 1049.51 18.56 1049.08 18.12C1048.65 17.68 1048.05 17.46 1047.28 17.46C1046.47 17.46 1045.85 17.7067 1045.42 18.2C1044.99 18.6933 1044.78 19.3333 1044.78 20.12C1044.78 20.24 1044.79 20.4333 1044.82 20.7ZM1056.67 18.32C1055.91 19.12 1055.53 20.52 1055.53 22.52C1055.53 24.52 1055.91 25.92 1056.67 26.72C1057.2 27.28 1057.89 27.56 1058.73 27.56C1059.57 27.56 1060.25 27.28 1060.79 26.72C1061.55 25.92 1061.93 24.52 1061.93 22.52C1061.93 20.52 1061.55 19.12 1060.79 18.32C1060.25 17.76 1059.57 17.48 1058.73 17.48C1057.89 17.48 1057.2 17.76 1056.67 18.32ZM1054.75 27.22C1053.97 26.0733 1053.59 24.5067 1053.59 22.52C1053.59 20.5333 1053.97 18.9667 1054.75 17.82C1055.67 16.4333 1056.99 15.74 1058.73 15.74C1060.46 15.74 1061.79 16.4333 1062.71 17.82C1063.48 18.9667 1063.87 20.5333 1063.87 22.52C1063.87 24.5067 1063.48 26.0733 1062.71 27.22C1061.79 28.6067 1060.46 29.3 1058.73 29.3C1056.99 29.3 1055.67 28.6067 1054.75 27.22ZM1067.69 20.7L1065.73 20.46C1065.72 20.34 1065.71 20.1667 1065.71 19.94C1065.71 18.78 1066.12 17.7933 1066.93 16.98C1067.74 16.1533 1068.83 15.74 1070.19 15.74C1071.54 15.74 1072.6 16.1267 1073.39 16.9C1074.18 17.66 1074.57 18.6 1074.57 19.72C1074.57 21.36 1073.76 22.6933 1072.13 23.72L1069.57 25.36C1068.65 25.9467 1068.12 26.5533 1067.99 27.18H1074.65V29H1065.57C1065.6 27.9067 1065.84 26.9467 1066.31 26.12C1066.79 25.2933 1067.57 24.5333 1068.65 23.84L1070.81 22.44C1072 21.68 1072.59 20.78 1072.59 19.74C1072.59 19.1 1072.38 18.56 1071.95 18.12C1071.52 17.68 1070.92 17.46 1070.15 17.46C1069.34 17.46 1068.72 17.7067 1068.29 18.2C1067.86 18.6933 1067.65 19.3333 1067.65 20.12C1067.65 20.24 1067.66 20.4333 1067.69 20.7ZM1079.96 22.98L1079 21.36L1082.82 17.84H1076.62V16.04H1085.42V17.8L1081.72 21.22C1082.77 21.22 1083.7 21.5667 1084.5 22.26C1085.31 22.9533 1085.72 23.92 1085.72 25.16C1085.72 26.3067 1085.3 27.2867 1084.46 28.1C1083.62 28.9133 1082.47 29.32 1081.02 29.32C1079.59 29.32 1078.44 28.9267 1077.58 28.14C1076.72 27.34 1076.26 26.3733 1076.2 25.24L1078.12 24.8C1078.16 25.64 1078.44 26.32 1078.98 26.84C1079.52 27.3467 1080.2 27.6 1081 27.6C1081.85 27.6 1082.52 27.3733 1083 26.92C1083.49 26.4533 1083.74 25.88 1083.74 25.2C1083.74 24.4133 1083.48 23.8133 1082.96 23.4C1082.44 22.9867 1081.82 22.78 1081.1 22.78C1080.71 22.78 1080.33 22.8467 1079.96 22.98Z" fill="black"/>
<line x1="352.988" y1="21.2627" x2="1028" y2="21.2627" stroke="black"/>
<line x1="546.991" y1="611.242" x2="1087.02" y2="611.242" stroke="black"/>
<g filter="url(#filter4_f_16_44)">
<ellipse cx="73" cy="387.5" rx="281" ry="272.5" fill="#FF08D7" fill-opacity="0.16"/>
</g>
<mask id="mask0_16_44" style="mask-type:alpha" maskUnits="userSpaceOnUse" x="-35" y="256" width="230" height="222">
<ellipse cx="80" cy="367" rx="115" ry="111" fill="#FF08D7" fill-opacity="0.16"/>
</mask>
<g mask="url(#mask0_16_44)">
</g>
</g>
<defs>
<filter id="filter0_f_16_44" x="755.528" y="91.5278" width="436.936" height="436.937" filterUnits="userSpaceOnUse" color-interpolation-filters="sRGB">
<feFlood flood-opacity="0" result="BackgroundImageFix"/>
<feBlend mode="normal" in="SourceGraphic" in2="BackgroundImageFix" result="shape"/>
<feGaussianBlur stdDeviation="65.7361" result="effect1_foregroundBlur_16_44"/>
</filter>
<filter id="filter1_f_16_44" x="749.8" y="-39.0318" width="436.936" height="436.937" filterUnits="userSpaceOnUse" color-interpolation-filters="sRGB">
<feFlood flood-opacity="0" result="BackgroundImageFix"/>
<feBlend mode="normal" in="SourceGraphic" in2="BackgroundImageFix" result="shape"/>
<feGaussianBlur stdDeviation="65.7361" result="effect1_foregroundBlur_16_44"/>
</filter>
<filter id="filter2_f_16_44" x="637" y="109.112" width="436.936" height="436.937" filterUnits="userSpaceOnUse" color-interpolation-filters="sRGB">
<feFlood flood-opacity="0" result="BackgroundImageFix"/>
<feBlend mode="normal" in="SourceGraphic" in2="BackgroundImageFix" result="shape"/>
<feGaussianBlur stdDeviation="65.7361" result="effect1_foregroundBlur_16_44"/>
</filter>
<filter id="filter3_f_16_44" x="615.192" y="-64.6002" width="436.936" height="436.937" filterUnits="userSpaceOnUse" color-interpolation-filters="sRGB">
<feFlood flood-opacity="0" result="BackgroundImageFix"/>
<feBlend mode="normal" in="SourceGraphic" in2="BackgroundImageFix" result="shape"/>
<feGaussianBlur stdDeviation="65.7361" result="effect1_foregroundBlur_16_44"/>
</filter>
<filter id="filter4_f_16_44" x="-368.705" y="-45.7052" width="883.41" height="866.41" filterUnits="userSpaceOnUse" color-interpolation-filters="sRGB">
<feFlood flood-opacity="0" result="BackgroundImageFix"/>
<feBlend mode="normal" in="SourceGraphic" in2="BackgroundImageFix" result="shape"/>
<feGaussianBlur stdDeviation="80.3526" result="effect1_foregroundBlur_16_44"/>
</filter>
<clipPath id="clip0_16_44">
<rect width="1440" height="632" fill="white"/>
</clipPath>
<clipPath id="clip1_16_44">
<rect x="779" y="115" width="294" height="282" rx="141" fill="white"/>
</clipPath>
</defs>
</svg>
