<svg width="24" height="25" viewBox="0 0 24 25" fill="none" xmlns="http://www.w3.org/2000/svg">
<path d="M19.868 3.125H4.13203C3.3 3.125 2.625 3.8 2.625 4.63203V20.368C2.625 21.2 3.3 21.875 4.13203 21.875H19.868C20.7 21.875 21.375 21.2 21.375 20.368V4.63203C21.375 3.8 20.7 3.125 19.868 3.125ZM19.868 20.375C9.37266 20.3727 4.125 20.3703 4.125 20.368C4.12734 9.87266 4.12969 4.625 4.13203 4.625C14.6273 4.62734 19.875 4.62969 19.875 4.63203C19.8727 15.1273 19.8703 20.375 19.868 20.375ZM5.40469 10.1539H8.18672V19.1023H5.40469V10.1539ZM6.79688 8.93047C7.68516 8.93047 8.40937 8.20859 8.40937 7.31797C8.40937 7.10621 8.36767 6.89653 8.28663 6.70089C8.2056 6.50525 8.08682 6.32749 7.93709 6.17776C7.78735 6.02802 7.60959 5.90925 7.41395 5.82821C7.21831 5.74718 7.00863 5.70547 6.79688 5.70547C6.58512 5.70547 6.37544 5.74718 6.1798 5.82821C5.98416 5.90925 5.8064 6.02802 5.65667 6.17776C5.50693 6.32749 5.38815 6.50525 5.30712 6.70089C5.22608 6.89653 5.18437 7.10621 5.18437 7.31797C5.18203 8.20859 5.90391 8.93047 6.79688 8.93047ZM12.7102 14.675C12.7102 13.5078 12.9328 12.3781 14.3789 12.3781C15.8039 12.3781 15.825 13.7117 15.825 14.75V19.1023H18.6047V14.1945C18.6047 11.7852 18.0844 9.93125 15.2695 9.93125C13.9172 9.93125 13.0102 10.6742 12.6375 11.3773H12.6V10.1539H9.93047V19.1023H12.7102V14.675Z" fill="#3D3B3B"/>
</svg>
